# xmcd
#
# Track frame offsets: 
#        150
#        13747
#        28679
#        43032
#        56761
#        75103
#        91905
#        108026
#        125801
#        137650
#        155252
#        176771
#
# Disc length: 2639 seconds
#
# Revision: 0
# Processed by: cddbd v1.5.2PL0 Copyright (c) Steve Scherf et al.
# Submitted via: ExactAudioCopy v0.95b3
#
DISCID=900a4d0c
DTITLE=Ricky Skaggs - The High Notes
DYEAR=2008
DGENRE=Bluegrass
TTITLE0=Crying My Heart Out Over You
TTITLE1=Heartbroke
TTITLE2=Highway 40 Blues
TTITLE3=I wouldn't Change You If I Could
TTITLE4=You've Got A Lover
TTITLE5=Cajun Moon
TTITLE6=Honey (Open That Door)
TTITLE7=Cat's In The Cradle
TTITLE8=Uncle Pen
TTITLE9=Country Boy
TTITLE10=Lovin' Only Me
TTITLE11=Somebody's Prayin'
EXTD=
EXTT0=
EXTT1=
EXTT2=
EXTT3=
EXTT4=
EXTT5=
EXTT6=
EXTT7=
EXTT8=
EXTT9=
EXTT10=
EXTT11=
PLAYORDER=
